<?xml version="1.0" standalone="no"?>
<!DOCTYPE svg PUBLIC "-//W3C//DTD SVG 20010904//EN"
 "http://www.w3.org/TR/2001/REC-SVG-20010904/DTD/svg10.dtd">
<svg version="1.0" xmlns="http://www.w3.org/2000/svg"
 width="260.000000pt" height="260.000000pt" viewBox="0 0 260.000000 260.000000"
 preserveAspectRatio="xMidYMid meet">
<metadata>
Created by potrace 1.11, written by Peter Selinger 2001-2013
</metadata>
<g transform="translate(0.000000,260.000000) scale(0.100000,-0.100000)"
fill="#000000" stroke="none">
<path d="M791 2464 c-57 -12 -151 -51 -206 -86 -74 -48 -189 -189 -198 -244
-1 -10 -5 -24 -9 -29 -21 -34 14 -215 46 -237 6 -4 8 -8 4 -8 -19 0 106 -133
167 -178 28 -20 52 -39 55 -42 3 -3 23 -15 45 -27 22 -11 56 -30 75 -40 19
-11 52 -26 73 -33 22 -6 51 -18 65 -26 15 -8 34 -14 43 -14 8 0 20 -5 27 -12
7 -7 12 -9 12 -5 0 4 8 3 18 -2 11 -6 30 -12 43 -15 35 -7 60 -14 99 -25 30
-10 39 -8 72 15 21 15 39 34 39 43 1 9 3 30 5 46 2 17 5 60 7 98 2 37 7 70 10
73 3 3 1 19 -3 35 -5 17 -5 31 1 35 5 3 6 10 3 16 -4 6 -8 45 -10 87 -4 66
-10 104 -39 228 -3 12 -14 42 -25 67 -11 26 -19 49 -19 53 0 3 -3 9 -8 12 -4
3 -17 23 -28 44 -34 64 -114 138 -167 152 -5 2 -10 4 -13 5 -3 1 -8 3 -12 5
-5 1 -15 4 -23 8 -32 13 -88 13 -149 1z"/>
<path d="M1670 2437 c0 -5 -3 -8 -6 -4 -11 11 -79 -30 -125 -75 -44 -42 -119
-154 -123 -183 -1 -9 -7 -20 -13 -26 -6 -6 -9 -18 -6 -25 3 -8 -1 -14 -8 -14
-7 0 -9 -3 -6 -7 4 -3 2 -12 -4 -20 -6 -7 -9 -13 -6 -13 4 0 0 -18 -8 -40 -8
-22 -14 -44 -14 -48 0 -4 -3 -29 -7 -57 -4 -27 -8 -63 -10 -80 -3 -24 -4 -200
-2 -338 0 -43 62 -81 114 -71 22 4 46 8 54 9 8 1 22 5 30 8 13 5 101 30 150
41 8 2 45 15 81 29 289 109 475 290 485 469 3 64 -28 188 -47 188 -5 0 -9 6
-9 13 0 20 -118 139 -174 175 -85 55 -151 75 -253 78 -62 2 -93 -1 -93 -9z"/>
<path d="M496 1532 c-3 -3 -25 -6 -48 -7 -73 -4 -120 -15 -184 -44 -75 -35
-129 -88 -162 -159 -23 -51 -24 -62 -20 -186 2 -72 9 -140 15 -151 6 -11 26
-50 44 -88 57 -119 155 -198 260 -211 15 -2 32 -6 38 -10 6 -4 11 -3 11 1 0 5
14 8 30 7 106 -7 336 123 460 260 19 22 42 47 50 55 26 28 126 163 163 223
l36 56 -15 46 c-9 25 -19 46 -24 46 -4 0 -24 7 -44 15 -20 8 -39 16 -43 16 -5
1 -24 9 -43 19 -40 21 -248 86 -300 95 -19 3 -60 8 -90 11 -30 2 -72 6 -92 8
-20 2 -39 1 -42 -2z"/>
<path d="M2020 1503 c0 -4 -24 -8 -53 -9 -49 -1 -113 -8 -147 -17 -8 -2 -36
-7 -63 -12 -26 -4 -50 -11 -53 -16 -3 -5 -9 -7 -14 -4 -4 3 -29 -4 -54 -15
-25 -10 -46 -17 -46 -15 0 2 -20 -4 -45 -15 -25 -11 -47 -19 -50 -20 -3 0 -20
-6 -38 -13 -38 -17 -62 -73 -47 -113 11 -28 135 -220 155 -241 8 -8 15 -18 15
-23 0 -4 42 -50 93 -103 101 -104 197 -171 306 -215 61 -25 83 -29 149 -26 95
3 161 32 230 103 48 49 121 180 126 226 1 14 6 28 9 32 4 3 7 20 7 37 0 22 3
27 9 17 6 -8 9 13 10 57 0 39 -4 74 -9 77 -6 3 -10 17 -10 31 0 13 -5 24 -11
24 -5 0 -7 4 -4 10 11 17 -65 119 -113 152 -65 45 -163 75 -270 83 -34 2 -67
7 -72 10 -6 3 -10 3 -10 -2z"/>
<path d="M1206 1185 c-20 -24 -43 -50 -49 -57 -28 -28 -125 -156 -154 -203
-46 -73 -93 -168 -87 -177 3 -4 1 -8 -4 -8 -9 0 -15 -19 -43 -120 -30 -113
-20 -245 26 -325 41 -72 143 -144 225 -159 14 -2 25 -5 25 -6 0 -13 189 -19
235 -8 14 3 42 9 63 13 20 4 37 11 37 16 0 5 3 8 8 7 12 -4 72 24 72 33 0 5 5
9 10 9 26 0 106 111 113 155 1 11 5 25 9 30 6 10 2 199 -5 225 -30 114 -71
221 -101 265 -12 17 -20 32 -20 35 2 8 -67 114 -80 122 -6 4 -8 8 -4 8 4 0 1
8 -7 18 -8 9 -42 52 -75 95 -62 77 -62 77 -110 77 -44 0 -50 -3 -84 -45z"/>
</g>
</svg>
